<svg width="320" height="270" viewBox="0 0 320 270" xmlns="http://www.w3.org/2000/svg"><title>concept-design</title><g stroke="#FFF" fill="none" fill-rule="evenodd"><path stroke-width="3" d="M40 45h240v180H40z"/><path d="M279.25 165.25H40.5M279.25 105.5H40.5M219.417 46.248V223.5M158.625 46.498V222.5M98.417 46.247V224.5" stroke-linecap="square"/><path d="M71.47 86c4.676 0 8.468-3.806 8.468-8.5s-3.792-8.5-8.47-8.5C66.793 69 63 72.806 63 77.5s3.792 8.5 8.47 8.5zM184.78 201.694c-1.016-.68-2.033-1.53-2.54-2.55-4.404-8.16 3.726-16.32 11.856-11.9 1.016.51 2.032 1.36 2.54 2.55 4.404 8.16-3.726 16.32-11.856 11.9z" stroke-width="3"/><circle cx="71.5" cy="22.5" r="3.5"/><circle cx="13.5" cy="77.5" r="3.5"/><circle cx="189.5" cy="251.5" r="3.5"/><circle cx="248.5" cy="134.5" r="3.5"/><circle cx="309.5" cy="134.5" r="3.5"/><circle cx="130.5" cy="193.5" r="3.5"/><circle cx="129.5" cy="135.5" r="3.5"/><circle stroke-width="3" cx="188.5" cy="77.5" r="8.5"/><path d="M189.5 183.5v-97" stroke-width="3" stroke-linecap="square"/><path d="M189.5 247.747v-44.495M134.24 193.5h45.523M71.5 26.5v41.012M61.75 77.5h-44.5M305.75 134.5H252.5" stroke-linecap="square"/><circle stroke-width="3" cx="71.5" cy="253.5" r="8.5"/><path d="M71.5 86.5v158.328M81.5 77.5h98.524" stroke-width="3" stroke-linecap="square"/><path d="M181.5 188.5l-49-50" stroke-linecap="square"/><path d="M245.003 131.003L195.5 82.5" stroke-width="3" stroke-linecap="square"/></g></svg>