<svg  viewBox="0 0 320 270" xmlns="http://www.w3.org/2000/svg"><title>interface-desgin</title><g stroke="#FFF" fill="none" fill-rule="evenodd"><path d="M140.277 44.378H280v179.634H40V44.378h77.01L141.39 20l11.632 11.633-12.745 12.745z" stroke-width="3"/><path stroke-width="3" d="M160 107h110v60H160z"/><path d="M162.5 164.5l106-55M162.5 109.5l105 55"/><path stroke-width="3" d="M161 178h50v10h-50zM107.628 76.185s-13.652 7.362-19.402 9.967c-.622.282-1.358-.454-1.105-1.103 2.35-6.01 9.195-20.178 9.195-20.178l45.08-45.08 11.314 11.313-45.082 45.08z"/><path d="M125.215 57H268v30H87M108 56H52v28" stroke-width="3"/><path d="M97.5 66.5l9 9M136.5 26.5l10 10M93 76.278l4.722 4.444M54 107h100.048M53 117h100.048M53 127h100.048M54 137h100.048M53 147h100.048M53 157h39.82"/></g></svg>
