<svg  viewBox="0 0 320 270" xmlns="http://www.w3.org/2000/svg"><title>visual-design</title><g stroke="#FFF" fill="none" fill-rule="evenodd"><path d="M280.472 74.77v142.725c0 4.15-3.356 7.505-7.494 7.505H47.494c-4.14 0-7.494-3.36-7.494-7.505V52.505C40 48.355 43.355 45 47.494 45h225.484c4.14 0 7.494 3.36 7.494 7.505v4.845c7.223-5.072 12.674-7.94 14.06-6.556 1.974 1.97-4.686 12.162-14.06 23.976z" stroke-width="3"/><path d="M51.5 136c.828 0 1.5-.672 1.5-1.5s-.672-1.5-1.5-1.5-1.5.672-1.5 1.5.672 1.5 1.5 1.5z"/><rect x="266" y="132" width="6" height="6" rx="1"/><path d="M269 141c3.314 0 6-2.686 6-6s-2.686-6-6-6-6 2.686-6 6 2.686 6 6 6zM260 73.9V65H61v140h199V97.13"/><path d="M73 153.05h43.596s5.093-10.62 5.093-8.608c0 2.014 1.003 12.405 10.038-9.06 9.035-21.467 12.634-26.817 11.123-23.193-1.51 3.623-6.232 16.975-7.555 20.98-1.322 4.007-2.425 7.332-1.67 9.43.756 2.1 2.078 1.908 4.156-.763 2.078-2.67 13.193-16.296 14.515-18.966 1.322-2.67 8.688-17.93 12.844-19.264 2.33-.75-3.055 8.54-8.312 19.074-4.118 8.252-11.333 25.33-6.044 26.285 5.288.953 19.643-19.99 24.177-27.24 4.534-7.247 18.89-25.367 19.833-24.414.945.955-3.022 4.388-5.666 9.157-2.645 4.77-16.24 28.41-15.236 34.955 1.005 6.544 8.534 9.564 23.592 3.02 4.262-1.852 2.51-1.08-5.52-1.842-8.032-.763-11.044.332-12.048-4.2-1.003-4.53 26.212-47.383 21.68-50.244-4.534-2.86-17.162 9.47-24.367 18.31-7.205 8.842-20.588 32.618-21.344 34.526-.755 1.907 14.733-32.427 15.49-37.386.754-4.96 1.51-11.254-6.234-6.295-7.745 4.96-20.59 25.37-20.59 25.37s12.656-34.524 6.234-34.524c-6.422 0-11.195 9.155-11.195 9.155L149.083 79H73v74.05z" stroke-width="3"/><path d="M148.803 79h58v50"/><path d="M229.33 106l-16.677 19.014c-.05.04-.1.082-.147.128-.318.313-.48.742-.506 1.237.36-.018.703.005 1.008.09 2.69.754 5.557 5.106 5.557 5.106s-.01.154-.044.424c.22-.084.42-.2.585-.363.065-.063.124-.133.176-.206L239 115.52c.05-.056-9.622-9.577-9.67-9.518z" stroke-width="3"/><path d="M240.535 91.4c-9.54 9.516-11.98 13.358-12.535 16.607l9.016 8.993c3.253-.506 6.848-2.57 16.478-12.176 17.984-17.938 44.875-50.77 41.158-54.477-3.716-3.707-36.132 23.114-54.117 41.053zM218.917 130.225s-2.734-4.22-5.303-4.95c-2.57-.73-7.6 2.652-8.308 5.834-.708 3.18-1.783 10.237-7.488 10.353-5.706.115 3.066 3.177 11.818.477 8.75-2.7 9.28-11.715 9.28-11.715z" stroke-width="3"/><path d="M117 153h90v-10"/></g></svg>
